<?xml version="1.0" encoding="UTF-8" standalone="no"?>
<svg
   xmlns:dc="http://purl.org/dc/elements/1.1/"
   xmlns:cc="http://creativecommons.org/ns#"
   xmlns:rdf="http://www.w3.org/1999/02/22-rdf-syntax-ns#"
   xmlns:svg="http://www.w3.org/2000/svg"
   xmlns="http://www.w3.org/2000/svg"
   xmlns:sodipodi="http://sodipodi.sourceforge.net/DTD/sodipodi-0.dtd"
   xmlns:inkscape="http://www.inkscape.org/namespaces/inkscape"
   viewBox="0 0 399.73314 399.73342"
   version="1.1"
   id="svg2"
   height="426.38232"
   width="426.38202"
   sodipodi:docname="icon_on_shape.svg"
   inkscape:version="0.92.1 r">
  <sodipodi:namedview
     pagecolor="#ffffff"
     bordercolor="#666666"
     borderopacity="1"
     objecttolerance="10"
     gridtolerance="10"
     guidetolerance="10"
     inkscape:pageopacity="0"
     inkscape:pageshadow="2"
     inkscape:window-width="1916"
     inkscape:window-height="1023"
     id="namedview4708"
     showgrid="false"
     inkscape:zoom="1.4790032"
     inkscape:cx="256.5367"
     inkscape:cy="196.92871"
     inkscape:window-x="1920"
     inkscape:window-y="36"
     inkscape:window-maximized="0"
     inkscape:current-layer="svg2"
     fit-margin-top="10"
     fit-margin-left="10"
     fit-margin-right="10"
     fit-margin-bottom="10" />
  <defs
     id="defs4">
    <filter
       style="color-interpolation-filters:sRGB;"
       inkscape:label="Drop Shadow"
       id="filter5490">
      <feFlood
         flood-opacity="0.498039"
         flood-color="rgb(0,0,0)"
         result="flood"
         id="feFlood5480" />
      <feComposite
         in="flood"
         in2="SourceGraphic"
         operator="in"
         result="composite1"
         id="feComposite5482" />
      <feGaussianBlur
         in="composite1"
         stdDeviation="2"
         result="blur"
         id="feGaussianBlur5484" />
      <feOffset
         dx="0"
         dy="2"
         result="offset"
         id="feOffset5486" />
      <feComposite
         in="SourceGraphic"
         in2="offset"
         operator="over"
         result="composite2"
         id="feComposite5488" />
    </filter>
  </defs>
  <metadata
     id="metadata7">
    <rdf:RDF>
      <cc:Work
         rdf:about="">
        <dc:format>image/svg+xml</dc:format>
        <dc:type
           rdf:resource="http://purl.org/dc/dcmitype/StillImage" />
        <dc:title></dc:title>
      </cc:Work>
    </rdf:RDF>
  </metadata>
  <rect
     style="color:#000000;display:inline;overflow:visible;visibility:visible;opacity:1;fill:#3b1c4a;fill-opacity:1;fill-rule:nonzero;stroke:none;stroke-width:1.0631249;stroke-linecap:square;stroke-linejoin:round;stroke-miterlimit:4;stroke-dasharray:none;stroke-dashoffset:0;stroke-opacity:1;marker:none;enable-background:accumulate;filter:url(#filter5490)"
     id="rect5459"
     width="380.98312"
     height="380.98343"
     x="9.375"
     y="9.375"
     ry="37.5"
     rx="37.5" />
  <g
     transform="matrix(2.4054686,0,0,2.4054686,-600.14159,-1300.057)"
     id="layer1"
     style="fill:#ffffff">
    <path
       id="rect3888"
       transform="matrix(0.93749999,0,0,0.93749999,257.78125,548.74975)"
       d="m 21.333984,21.333984 v 36.365235 c 12.136982,0 21.986328,9.902287 21.986328,22.101562 0,12.199254 -9.849346,22.066409 -21.986328,22.066409 v 36.36719 h 72.892578 v -10.13477 h 3.183594 v 10.13477 h 40.824224 v -36.36719 c -0.0111,2e-5 -0.0222,0 -0.0332,0 -12.13697,0 -21.98828,-9.867155 -21.98828,-22.066409 0,-12.199275 9.85131,-22.101562 21.98828,-22.101562 0.0112,0 0.0222,-2.2e-5 0.0332,0 V 21.333984 H 97.410156 v 9.699219 H 94.226562 V 21.333984 Z M 94.226562,38.5 h 3.183594 v 14.933594 h -3.183594 z m 0,22.400391 h 3.183594 v 14.933593 h -3.183594 z m -27.18164,3.126953 c 9.314411,0 15.617187,4.964398 15.617187,15.505859 0,9.481739 -5.522675,15.505859 -13.27539,15.505859 -1.896342,0 -3.459392,-0.224161 -4.240235,-0.447265 V 106.64062 H 54.550781 V 66.314453 c 2.844523,-1.338603 6.693543,-2.287109 12.494141,-2.287109 z m -0.05469,6.189453 c -0.780842,0 -1.341776,0.111969 -1.84375,0.279297 v 18.072265 c 0.390422,0.167318 0.950715,0.277344 1.675782,0.277344 3.792704,0 5.353515,-3.120616 5.353515,-9.255859 0,-6.302571 -1.337077,-9.373047 -5.185547,-9.373047 z M 94.22656,83.300781 h 3.183594 V 98.234375 H 94.22656 Z m 0,22.398439 h 3.183594 v 14.93359 H 94.22656 Z"
       style="color:#000000;display:inline;overflow:visible;visibility:visible;fill:#ffffff;fill-opacity:1;fill-rule:nonzero;stroke:none;stroke-width:1.06666672;marker:none;enable-background:accumulate"
       inkscape:connector-curvature="0" />
  </g>
</svg>
