<?xml version="1.0" encoding="UTF-8" standalone="no"?>
<!-- Created with Inkscape (http://www.inkscape.org/) -->

<svg
   xmlns:dc="http://purl.org/dc/elements/1.1/"
   xmlns:cc="http://creativecommons.org/ns#"
   xmlns:rdf="http://www.w3.org/1999/02/22-rdf-syntax-ns#"
   xmlns:svg="http://www.w3.org/2000/svg"
   xmlns="http://www.w3.org/2000/svg"
   xmlns:sodipodi="http://sodipodi.sourceforge.net/DTD/sodipodi-0.dtd"
   xmlns:inkscape="http://www.inkscape.org/namespaces/inkscape"
   width="164"
   height="314"
   viewBox="0 0 43.391665 83.079169"
   version="1.1"
   id="svg8"
   inkscape:version="0.92.1 r"
   sodipodi:docname="installer.svg"
   inkscape:export-filename="/home/raphael/proj/pretixdesk/pretixdesk/windows/splash.png"
   inkscape:export-xdpi="96"
   inkscape:export-ydpi="96">
  <defs
     id="defs2" />
  <sodipodi:namedview
     id="base"
     pagecolor="#ffffff"
     bordercolor="#666666"
     borderopacity="1.0"
     inkscape:pageopacity="0.0"
     inkscape:pageshadow="2"
     inkscape:zoom="0.98994949"
     inkscape:cx="241.59751"
     inkscape:cy="98.975161"
     inkscape:document-units="mm"
     inkscape:current-layer="layer1"
     showgrid="false"
     units="px"
     inkscape:window-width="1916"
     inkscape:window-height="1023"
     inkscape:window-x="1920"
     inkscape:window-y="36"
     inkscape:window-maximized="0" />
  <metadata
     id="metadata5">
    <rdf:RDF>
      <cc:Work
         rdf:about="">
        <dc:format>image/svg+xml</dc:format>
        <dc:type
           rdf:resource="http://purl.org/dc/dcmitype/StillImage" />
        <dc:title></dc:title>
      </cc:Work>
    </rdf:RDF>
  </metadata>
  <g
     inkscape:label="Ebene 1"
     inkscape:groupmode="layer"
     id="layer1"
     transform="translate(0,-213.92082)">
    <rect
       style="color:#000000;display:inline;overflow:visible;visibility:visible;opacity:1;fill:#3b1c4a;fill-opacity:1;fill-rule:nonzero;stroke:none;stroke-width:1.16462266;stroke-linecap:square;stroke-linejoin:round;stroke-miterlimit:4;stroke-dasharray:none;stroke-dashoffset:0;stroke-opacity:1;marker:none;enable-background:accumulate"
       id="rect4485"
       width="43.391666"
       height="83.07917"
       x="1.2715657e-07"
       y="213.92082" />
    <path
       inkscape:connector-curvature="0"
       style="color:#000000;display:inline;overflow:visible;visibility:visible;fill:#ffffff;fill-opacity:1;fill-rule:nonzero;stroke:none;stroke-width:0.1049263;marker:none;enable-background:accumulate"
       d="m 8.3619947,221.68104 v 3.57734 c 1.2000199,0 2.1739413,0.97392 2.1739413,2.17394 0,1.20002 -0.9739214,2.17066 -2.1739413,2.17066 v 3.57733 H 23.753373 v -0.9968 h 0.314779 v 0.9968 h 10.96152 v -3.57733 c -0.0011,0 -0.0022,0 -0.0033,0 -1.200019,0 -2.173943,-0.97064 -2.173943,-2.17066 0,-1.20002 0.973924,-2.17394 2.173943,-2.17394 0.0011,0 0.0022,0 0.0033,0 v -3.57734 h -10.96152 v 0.95417 h -0.314779 v -0.95417 z m 15.3913783,1.68866 h 0.314779 v 1.46897 h -0.314779 z m 4.348294,1.34662 c 0.292815,0 0.52709,0.20228 0.52709,0.45249 0,0.25023 -0.234275,0.45783 -0.52709,0.45783 -0.287491,0 -0.521763,-0.2076 -0.521763,-0.45783 0,-0.25021 0.234272,-0.45249 0.521763,-0.45249 z m -1.38802,0.44184 v 0.84126 h 0.415403 v 0.66009 h -0.415403 v 1.28841 c 0,0.21296 0.07452,0.29286 0.223583,0.29286 0.07453,0 0.111961,-0.0107 0.19182,-0.0425 v 0.62279 c -0.07453,0.0426 -0.250419,0.10123 -0.48467,0.10123 -0.644194,0 -0.942287,-0.39387 -0.942287,-0.889 v -1.37367 h -0.298179 v -0.6601 h 0.298179 v -0.58569 z m -2.960274,0.41499 h 0.314779 v 1.46897 h -0.314779 z m -7.824183,0.37299 c 0.889094,0 1.490692,0.4738 1.490692,1.48003 0,0.90506 -0.527083,1.48003 -1.267109,1.48003 -0.181013,0 -0.330211,-0.0213 -0.404745,-0.0426 v 1.15009 h -1.011554 v -3.84928 c 0.271519,-0.12777 0.639029,-0.21826 1.192716,-0.21825 z m 5.23197,0 c 0.899742,0 1.325678,0.62277 1.272437,1.59706 l -1.671648,0.23442 c 0.06388,0.3088 0.228802,0.46316 0.596153,0.46316 0.340731,0 0.606942,-0.0747 0.76666,-0.15452 l 0.223582,0.61768 c -0.250223,0.12244 -0.585524,0.21825 -1.117916,0.21825 -0.93701,0 -1.43208,-0.63355 -1.43208,-1.49602 0,-0.86247 0.46307,-1.48003 1.362812,-1.48003 z m -1.880476,7.8e-4 c 0.09368,0.002 0.191801,0.005 0.294285,0.01 l -0.175833,0.70272 c -0.186337,-0.0905 -0.367351,-0.0959 -0.50045,-0.0479 v 2.25736 h -1.011554 v -2.70453 c 0.29348,-0.1444 0.737806,-0.2276 1.393552,-0.21763 z m 8.315205,0.0527 h 1.011556 v 2.86949 h -1.011556 z m 1.388634,0 h 1.054182 l 0.346134,0.7187 h 0.01066 l 0.377899,-0.7187 h 0.942288 l -0.835722,1.32551 0.915644,1.54398 h -1.117913 l -0.367448,-0.7933 h -0.01066 l -0.383227,0.7933 h -1.022211 l 0.899661,-1.48004 z m -7.86599,0.52709 c -0.298139,0 -0.463124,0.27133 -0.43118,0.77178 l 0.814613,-0.12234 c 0,-0.43656 -0.127885,-0.64944 -0.383433,-0.64944 z m -5.194671,0.0105 c -0.07453,0 -0.127918,0.0107 -0.175834,0.0267 v 1.72493 c 0.03727,0.016 0.09064,0.0267 0.15985,0.0267 0.362027,0 0.511105,-0.29804 0.511105,-0.88367 0,-0.60161 -0.127771,-0.89454 -0.495121,-0.89454 z m 7.829511,1.23963 h 0.314779 v 1.46898 h -0.314779 z m 0,2.20346 h 0.314779 v 1.46897 h -0.314779 z"
       id="rect3888" />
  </g>
</svg>
