<?xml version="1.0" encoding="UTF-8" standalone="no"?>
<!-- Created with Inkscape (http://www.inkscape.org/) -->

<svg
   xmlns:dc="http://purl.org/dc/elements/1.1/"
   xmlns:cc="http://creativecommons.org/ns#"
   xmlns:rdf="http://www.w3.org/1999/02/22-rdf-syntax-ns#"
   xmlns:svg="http://www.w3.org/2000/svg"
   xmlns="http://www.w3.org/2000/svg"
   xmlns:sodipodi="http://sodipodi.sourceforge.net/DTD/sodipodi-0.dtd"
   xmlns:inkscape="http://www.inkscape.org/namespaces/inkscape"
   width="400"
   height="200"
   viewBox="0 0 105.83333 52.916668"
   version="1.1"
   id="svg8"
   inkscape:version="0.92.1 r"
   sodipodi:docname="splash.svg">
  <defs
     id="defs2" />
  <sodipodi:namedview
     id="base"
     pagecolor="#ffffff"
     bordercolor="#666666"
     borderopacity="1.0"
     inkscape:pageopacity="0.0"
     inkscape:pageshadow="2"
     inkscape:zoom="1.4"
     inkscape:cx="249.7072"
     inkscape:cy="128.77386"
     inkscape:document-units="mm"
     inkscape:current-layer="layer1"
     showgrid="false"
     units="px"
     inkscape:window-width="1916"
     inkscape:window-height="1041"
     inkscape:window-x="1920"
     inkscape:window-y="18"
     inkscape:window-maximized="0" />
  <metadata
     id="metadata5">
    <rdf:RDF>
      <cc:Work
         rdf:about="">
        <dc:format>image/svg+xml</dc:format>
        <dc:type
           rdf:resource="http://purl.org/dc/dcmitype/StillImage" />
        <dc:title></dc:title>
      </cc:Work>
    </rdf:RDF>
  </metadata>
  <g
     inkscape:label="Ebene 1"
     inkscape:groupmode="layer"
     id="layer1"
     transform="translate(0,-244.08332)">
    <rect
       style="color:#000000;display:inline;overflow:visible;visibility:visible;opacity:1;fill:#3b1c4a;fill-opacity:1;fill-rule:nonzero;stroke:none;stroke-width:1.45158851;stroke-linecap:square;stroke-linejoin:round;stroke-miterlimit:4;stroke-dasharray:none;stroke-dashoffset:0;stroke-opacity:1;marker:none;enable-background:accumulate"
       id="rect4485"
       width="105.83334"
       height="52.916668"
       x="-5.0862632e-06"
       y="244.08331" />
    <path
       inkscape:connector-curvature="0"
       style="color:#000000;display:inline;overflow:visible;visibility:visible;fill:#ffffff;fill-opacity:1;fill-rule:nonzero;stroke:none;stroke-width:0.26458332;marker:none;enable-background:accumulate"
       d="m 19.293913,256.04331 v 9.02063 c 3.025984,0 5.481835,2.45586 5.481835,5.48184 0,3.02598 -2.455851,5.47357 -5.481835,5.47357 v 9.02064 H 58.10498 v -2.51355 h 0.79375 v 2.51355 h 27.64069 v -9.02064 c -0.0028,0 -0.0055,0 -0.0083,0 -3.025982,0 -5.481836,-2.44759 -5.481836,-5.47357 0,-3.02598 2.455854,-5.48184 5.481836,-5.48184 0.0028,0 0.0055,0 0.0083,0 v -9.02063 H 58.89873 v 2.40605 h -0.79375 v -2.40605 z m 38.811067,4.25813 h 0.79375 v 3.70417 h -0.79375 z m 10.964706,3.39566 c 0.738365,0 1.329116,0.51005 1.329116,1.14102 0,0.63097 -0.590751,1.15445 -1.329116,1.15445 -0.724942,0 -1.315683,-0.52348 -1.315683,-1.15445 0,-0.63097 0.590741,-1.14102 1.315683,-1.14102 z m -3.500046,1.11415 v 2.12131 h 1.047483 v 1.6645 H 65.56964 v 3.2489 c 0,0.53699 0.187894,0.73846 0.56379,0.73846 0.187947,0 0.282319,-0.0269 0.483693,-0.10749 v 1.57045 c -0.187949,0.10739 -0.631457,0.25528 -1.22215,0.25528 -1.624407,0 -2.37608,-0.99322 -2.37608,-2.24173 v -3.46387 H 62.267 v -1.6645 h 0.751893 v -1.47691 z m -7.46466,1.04644 h 0.79375 v 3.70417 h -0.79375 z m -19.729545,0.94052 c 2.241949,0 3.758943,1.19477 3.758943,3.73207 0,2.28222 -1.329097,3.73207 -3.195153,3.73207 -0.456443,0 -0.832663,-0.0538 -1.02061,-0.10749 v 2.90008 h -2.550748 v -9.70638 c 0.684667,-0.3222 1.611383,-0.55036 3.007568,-0.55035 z m 13.192992,0 c 2.2688,0 3.342842,1.57039 3.208592,4.02714 l -4.215249,0.59118 c 0.161099,0.77864 0.576953,1.16789 1.50327,1.16789 0.859187,0 1.530469,-0.18827 1.933215,-0.38964 l 0.56379,1.55752 c -0.630968,0.30877 -1.476465,0.55036 -2.81895,0.55036 -2.362774,0 -3.61115,-1.59756 -3.61115,-3.77238 0,-2.17483 1.167683,-3.73207 3.436482,-3.73207 z m -4.741828,0.002 c 0.23622,0.004 0.483646,0.0119 0.742072,0.0253 l -0.443383,1.77198 c -0.469871,-0.22822 -0.926317,-0.24175 -1.261939,-0.12092 v 5.69216 h -2.550747 v -6.81974 c 0.740045,-0.36415 1.86046,-0.57395 3.513997,-0.5488 z m 20.967711,0.13281 h 2.55075 v 7.23573 h -2.55075 z m 3.501596,0 h 2.658234 l 0.872816,1.81229 h 0.02687 l 0.952915,-1.81229 h 2.376083 l -2.107367,3.34243 2.308903,3.8933 h -2.818948 l -0.92656,-2.0004 h -0.02687 l -0.966348,2.0004 h -2.577621 l 2.268595,-3.73207 z m -19.834965,1.32911 c -0.751793,0 -1.167821,0.6842 -1.087271,1.94614 l 2.054137,-0.30851 c 0,-1.10084 -0.322474,-1.63763 -0.966866,-1.63763 z m -13.098942,0.0264 c -0.187947,0 -0.322562,0.0269 -0.443384,0.0672 v 4.3496 c 0.09397,0.0403 0.228555,0.0672 0.403077,0.0672 0.912891,0 1.28881,-0.75155 1.28881,-2.22829 0,-1.517 -0.322189,-2.25567 -1.248503,-2.25567 z m 19.742981,3.12589 h 0.79375 v 3.70417 h -0.79375 z m 0,5.55625 h 0.79375 v 3.70417 h -0.79375 z"
       id="rect3888" />
  </g>
</svg>
